# xmcd CD database file
#
# Track frame offsets:
#	182
#	16610
#	29160
#	43077
#	55955
#	67855
#	82135
#	97452
#	109792
#	123467
#	136585
#	156085
#	177662
#	193190
#	203942
#	221155
#	239920
#	256050
#	270047
#	284670
#	300122
#	315585
#	328997
#	344580
#
# Disc length: 4732 seconds
#
# Revision: 6
# Processed by: cddbd v1.5.2PL0 Copyright (c) Steve Scherf et al.
# Submitted via: CDex 1.70beta2
#
DISCID=72127a18
DTITLE=Various Artist - Have A Nice Decade [Disc3]
DYEAR=1998
DGENRE=Pop
TTITLE0=Gilbert O'Sullivan - Alone Again (Naturally)
TTITLE1=Climax - Precious And Few
TTITLE2=Looking Glass - Brandy (You're A Fine Girl)
TTITLE3=King Harvest - Dancing In The Moonlight
TTITLE4=Gallery - Nice To Be With You
TTITLE5=Sammy Davis Jr. - The Candy Man
TTITLE6=Wayne Newton - Daddy Don't You Walk So Fast
TTITLE7=Commander Cody and His Lost Planet Airmen - Hot Rod Lincoln
TTITLE8=Gary Glitter - Rock And Roll Part 2
TTITLE9=Dr. Hook and The Medicine Show - The Cover Of  "Rolling Stone"
TTITLE10=Carly Simon - You're So Vain
TTITLE11=Billy Paul - Me And Mrs. Jones
TTITLE12=Curtis Mayfield - Freddie's Dead (Theme From "Superfly")
TTITLE13=Maureen McGovern - The Morning After
TTITLE14=The Isley Brothers - That Lady (Part 1)
TTITLE15=Barry White - I'm Gonna Love You Just A Little More Baby
TTITLE16=Love Unlimited Orchestra - Love's Theme
TTITLE17=Kool and The Gang - Jungle Boogie
TTITLE18=El Chicano - Tell Her She's Lovely
TTITLE19=Stealers Wheel - Stuck In The Middle With You
TTITLE20=Dawn - Tie A Yellow Ribbon Round The Old Oak Tree
TTITLE21=Brownsville Station - Smokin' In The Boy's Room
TTITLE22=Edgar Winter Group - Frankenstein
TTITLE23=Eric Weissberg - Dueling Banjos
EXTD=YEAR: 1998
EXTT0=
EXTT1=
EXTT2=
EXTT3=
EXTT4=
EXTT5=
EXTT6=
EXTT7=
EXTT8=
EXTT9=
EXTT10=
EXTT11=
EXTT12=
EXTT13=
EXTT14=
EXTT15=
EXTT16=
EXTT17=
EXTT18=
EXTT19=
EXTT20=
EXTT21=
EXTT22=
EXTT23=
PLAYORDER=
